HIERARCHY
ROOT hip
{
  OFFSET 55.1207 81.6025 47.4145
  CHANNELS 6 Xposition Yposition Zposition Zrotation Xrotation Yrotation
  JOINT abdomen
  {
    OFFSET 0 20.6881 -0.73152
    CHANNELS 3 Zrotation Xrotation Yrotation
    JOINT chest
    {
      OFFSET 0 11.7043 -0.48768
      CHANNELS 3 Zrotation Xrotation Yrotation
      JOINT neck
      {
        OFFSET 0 22.1894 -2.19456
        CHANNELS 3 Zrotation Xrotation Yrotation
        JOINT head
        {
          OFFSET -0.24384 7.07133 1.2192
          CHANNELS 3 Zrotation Xrotation Yrotation
          JOINT leftEye
          {
            OFFSET 4.14528 8.04674 8.04672
            CHANNELS 3 Zrotation Xrotation Yrotation
            End Site
            {
              OFFSET 1 0 0
            }
          }
          JOINT rightEye
          {
            OFFSET -3.6576 8.04674 8.04672
            CHANNELS 3 Zrotation Xrotation Yrotation
            End Site
            {
              OFFSET 1 0 0
            }
          }
        }
      }
      JOINT rCollar
      {
        OFFSET -2.68224 19.2634 -4.8768
        CHANNELS 3 Zrotation Xrotation Yrotation
        JOINT rShldr
        {
          OFFSET -8.77824 -1.95073 1.46304
          CHANNELS 3 Zrotation Xrotation Yrotation
          JOINT rForeArm
          {
            OFFSET -28.1742 -1.7115 0.48768
            CHANNELS 3 Zrotation Xrotation Yrotation
            JOINT rHand
            {
              OFFSET -22.5879 0.773209 7.07136
              CHANNELS 3 Zrotation Xrotation Yrotation
              JOINT rThumb1
              {
                OFFSET -1.2192 -0.487915 3.41376
                CHANNELS 3 Zrotation Xrotation Yrotation
                JOINT rThumb2
                {
                  OFFSET -3.37035 -0.52449 3.41376
                  CHANNELS 3 Zrotation Xrotation Yrotation
                  End Site
                  {
                    OFFSET -1.78271 -1.18214 1.43049
                  }
                }
              }
              JOINT rIndex1
              {
                OFFSET -7.75947 0.938293 5.60832
                CHANNELS 3 Zrotation Xrotation Yrotation
                JOINT rIndex2
                {
                  OFFSET -2.54057 -0.884171 1.56538
                  CHANNELS 3 Zrotation Xrotation Yrotation
                  End Site
                  {
                    OFFSET -1.62519 -0.234802 1.16502
                  }
                }
              }
              JOINT rMid1
              {
                OFFSET -8.24714 1.18213 3.41376
                CHANNELS 3 Zrotation Xrotation Yrotation
                JOINT rMid2
                {
                  OFFSET -3.10165 -0.590103 1.0647
                  CHANNELS 3 Zrotation Xrotation Yrotation
                  End Site
                  {
                    OFFSET -2.48547 -0.328903 0.83742
                  }
                }
              }
              JOINT rRing1
              {
                OFFSET -8.82822 0.546677 1.51678
                CHANNELS 3 Zrotation Xrotation Yrotation
                JOINT rRing2
                {
                  OFFSET -2.60934 -0.819778 -0.0198488
                  CHANNELS 3 Zrotation Xrotation Yrotation
                  End Site
                  {
                    OFFSET -2.33842 -0.294052 0.168128
                  }
                }
              }
              JOINT rPinky1
              {
                OFFSET -8.27202 -0.0477905 -0.4584
                CHANNELS 3 Zrotation Xrotation Yrotation
                JOINT rPinky2
                {
                  OFFSET -1.82734 -0.647385 -0.700984
                  CHANNELS 3 Zrotation Xrotation Yrotation
                  End Site
                  {
                    OFFSET -1.69225 -0.51767 -0.607171
                  }
                }
              }
            }
          }
        }
      }
      JOINT lCollar
      {
        OFFSET 2.68224 19.2634 -4.8768
        CHANNELS 3 Zrotation Xrotation Yrotation
        JOINT lShldr
        {
          OFFSET 8.77824 -1.95073 1.46304
          CHANNELS 3 Zrotation Xrotation Yrotation
          JOINT lForeArm
          {
            OFFSET 28.1742 -1.7115 0.48768
            CHANNELS 3 Zrotation Xrotation Yrotation
            JOINT lHand
            {
              OFFSET 22.5879 0.773209 7.07136
              CHANNELS 3 Zrotation Xrotation Yrotation
              JOINT lThumb1
              {
                OFFSET 1.2192 -0.487915 3.41376
                CHANNELS 3 Zrotation Xrotation Yrotation
                JOINT lThumb2
                {
                  OFFSET 3.37035 -0.52449 3.41376
                  CHANNELS 3 Zrotation Xrotation Yrotation
                  End Site
                  {
                    OFFSET 1.78271 -1.18214 1.43049
                  }
                }
              }
              JOINT lIndex1
              {
                OFFSET 7.75947 0.938293 5.60832
                CHANNELS 3 Zrotation Xrotation Yrotation
                JOINT lIndex2
                {
                  OFFSET 2.54057 -0.884171 1.56538
                  CHANNELS 3 Zrotation Xrotation Yrotation
                  End Site
                  {
                    OFFSET 1.62519 -0.234802 1.16502
                  }
                }
              }
              JOINT lMid1
              {
                OFFSET 8.24714 1.18213 3.41376
                CHANNELS 3 Zrotation Xrotation Yrotation
                JOINT lMid2
                {
                  OFFSET 3.10165 -0.590103 1.0647
                  CHANNELS 3 Zrotation Xrotation Yrotation
                  End Site
                  {
                    OFFSET 2.48547 -0.328903 0.83742
                  }
                }
              }
              JOINT lRing1
              {
                OFFSET 8.82822 0.546677 1.51678
                CHANNELS 3 Zrotation Xrotation Yrotation
                JOINT lRing2
                {
                  OFFSET 2.60934 -0.819778 -0.0198488
                  CHANNELS 3 Zrotation Xrotation Yrotation
                  End Site
                  {
                    OFFSET 2.33842 -0.294052 0.168128
                  }
                }
              }
              JOINT lPinky1
              {
                OFFSET 8.27202 -0.0477905 -0.4584
                CHANNELS 3 Zrotation Xrotation Yrotation
                JOINT lPinky2
                {
                  OFFSET 1.82734 -0.647385 -0.700984
                  CHANNELS 3 Zrotation Xrotation Yrotation
                  End Site
                  {
                    OFFSET 1.69225 -0.51767 -0.607171
                  }
                }
              }
            }
          }
        }
      }
    }
  }
  JOINT rButtock
  {
    OFFSET -8.77824 4.35084 1.2192
    CHANNELS 3 Zrotation Xrotation Yrotation
    JOINT rThigh
    {
      OFFSET 0 -1.70687 -2.19456
      CHANNELS 3 Zrotation Xrotation Yrotation
      JOINT rShin
      {
        OFFSET 0 -36.8199 0.73152
        CHANNELS 3 Zrotation Xrotation Yrotation
        JOINT rFoot
        {
          OFFSET 0.73152 -45.1104 -5.12064
          CHANNELS 3 Zrotation Xrotation Yrotation
          End Site
          {
            OFFSET -1.1221 -3.69964 12.103
          }
        }
      }
    }
  }
  JOINT lButtock
  {
    OFFSET 8.77824 4.35084 1.2192
    CHANNELS 3 Zrotation Xrotation Yrotation
    JOINT lThigh
    {
      OFFSET 0 -1.70687 -2.19456
      CHANNELS 3 Zrotation Xrotation Yrotation
      JOINT lShin
      {
        OFFSET 0 -36.8199 0.73152
        CHANNELS 3 Zrotation Xrotation Yrotation
        JOINT lFoot
        {
          OFFSET -0.73152 -45.1104 -5.12064
          CHANNELS 3 Zrotation Xrotation Yrotation
          End Site
          {
            OFFSET 1.1221 -3.69964 12.103
          }
        }
      }
    }
  }
}
MOTION
Frames:	6
Frame Time:	0.00833333
-52.503 72.5674 -9.5255 -5.05035 -10.0436 33.3771 13.3013 22.1005 -1.47254 6.53164 -5.4832 0.84335 -6.05618 -0.199756 1.21071 -2.79833 -4.55614 4.10216 -0 0 0 -0 0 0 5.3911e-013 -2.87831e-013 -1.29757e-012 52.6485 45.6297 -4.40519 -26.9815 -44.065 91.5734 -0.0595958 -6.94916 -0.981507 1.61098e-010 -5.88949e-009 4.32227e-009 2.73745e-010 -1.0177e-008 7.464e-009 1.61096e-010 -5.88948e-009 4.32227e-009 7.73091 5.47488 0.417314 1.61094e-010 -5.88948e-009 4.32227e-009 2.90554 0.965183 0.102902 1.61101e-010 -5.88948e-009 4.32227e-009 10.2786 0.731801 0.0259123 1.61096e-010 -5.88948e-009 4.32228e-009 2.22167 -0.733487 -0.20892 5.38935e-013 -2.8785e-013 -1.29777e-012 -81.0993 24.16 10.702 27.9449 -40.6953 -85.1768 0.769965 -24.1043 3.60512 4.83579e-009 -2.55581e-010 1.20608e-009 8.34573e-009 -5.73565e-010 2.16111e-009 4.83578e-009 -2.55589e-010 1.20609e-009 -7.73091 5.47488 -0.417314 4.83579e-009 -2.55579e-010 1.20609e-009 -2.90554 0.965183 -0.102902 4.83578e-009 -2.55582e-010 1.20608e-009 -10.2786 0.731801 -0.0259123 4.83578e-009 -2.55578e-010 1.20608e-009 -2.22167 -0.733487 0.20892 -2.03217e-016 0 -3.88251e-019 -12.9806 -29.7835 -2.25968 -0.95126 58.0858 1.31651 -1.90203 -12.9566 -4.76221 2.03217e-016 0 3.88251e-019 13.6455 -37.501 9.88508 20.8264 87.0572 -20.991 -2.05914 4.50575 -28.3905 
-52.0043 72.3351 -8.38225 -5.09304 -9.98557 33.8317 13.2591 22.3353 -0.454169 6.38576 -5.54024 1.12459 -6.08126 -0.326133 1.08555 -2.68977 -4.3207 3.88883 -0 0 0 -0 0 0 4.7279e-013 -1.98157e-013 -1.25612e-012 50.7884 45.559 -2.04117 -27.168 -43.4141 90.4466 -0.0630897 -7.13829 -1.00853 1.62288e-010 -5.12029e-009 3.71865e-009 2.7768e-010 -8.84612e-009 6.42055e-009 1.62288e-010 -5.12028e-009 3.71864e-009 7.73091 5.47488 0.417314 1.62284e-010 -5.12028e-009 3.71865e-009 2.90554 0.965183 0.102902 1.62291e-010 -5.12028e-009 3.71865e-009 10.2786 0.731801 0.0259123 1.62286e-010 -5.12028e-009 3.71866e-009 2.22167 -0.733487 -0.20892 4.72618e-013 -1.98171e-013 -1.25631e-012 -81.7274 23.8831 11.1534 27.9737 -40.5292 -84.8917 0.782944 -24.2606 3.63241 4.75926e-009 -4.27943e-010 1.52e-009 8.20743e-009 -8.65514e-010 2.70174e-009 4.75926e-009 -4.2795e-010 1.52e-009 -7.73091 5.47488 -0.417314 4.75927e-009 -4.2794e-010 1.52e-009 -2.90554 0.965183 -0.102902 4.75926e-009 -4.27944e-010 1.52e-009 -10.2786 0.731801 -0.0259123 4.75926e-009 -4.27941e-010 1.51999e-009 -2.22167 -0.733487 0.20892 -2.03217e-016 0 -3.88251e-019 -13.2356 -29.1017 -2.94504 -0.979856 58.7488 1.40253 -2.01214 -14.1551 -4.71718 2.03217e-016 0 3.88251e-019 14.0294 -38.7094 11.514 27.2123 87.688 -27.3838 -2.4607 3.34153 -26.4552 
-51.6024 72.2324 -7.17238 -5.12156 -9.91179 34.4423 13.2016 22.4812 0.482628 6.18185 -5.66438 1.3785 -6.03364 -0.387062 0.933215 -2.49587 -3.91525 3.60353 -0 0 0 -0 0 0 3.0653e-013 -4.47259e-014 -1.00337e-012 49.2307 45.5648 0.163745 -27.2959 -43.0285 89.6963 -0.0670611 -7.33775 -1.03708 1.633e-010 -3.03035e-009 2.20362e-009 2.83416e-010 -5.23066e-009 3.80234e-009 1.63306e-010 -3.03034e-009 2.20361e-009 7.73091 5.47488 0.417314 1.63296e-010 -3.03034e-009 2.20362e-009 2.90554 0.965183 0.102902 1.63304e-010 -3.03034e-009 2.20363e-009 10.2786 0.731801 0.0259123 1.63299e-010 -3.03034e-009 2.20364e-009 2.22167 -0.733487 -0.20892 3.06387e-013 -4.47278e-014 -1.00353e-012 -82.2909 23.8097 11.7807 27.9897 -40.4449 -84.7403 0.761409 -23.9556 3.58066 4.21713e-009 -1.4124e-009 2.19517e-009 7.25843e-009 -2.5541e-009 3.85936e-009 4.21713e-009 -1.41241e-009 2.19517e-009 -7.73091 5.47488 -0.417314 4.21714e-009 -1.4124e-009 2.19517e-009 -2.90554 0.965183 -0.102902 4.21713e-009 -1.4124e-009 2.19517e-009 -10.2786 0.731801 -0.0259123 4.21713e-009 -1.4124e-009 2.19516e-009 -2.22167 -0.733487 0.20892 -2.03217e-016 0 -3.88251e-019 -13.5211 -28.1812 -3.66924 -0.990386 59.146 1.47218 -2.12744 -15.317 -4.69423 2.03217e-016 0 3.88251e-019 14.3531 -39.8847 13.1297 34.2097 88.1076 -34.3922 -2.75859 2.0554 -24.2332 
-51.153 72.357 -5.96951 -5.19581 -9.89094 35.1071 13.2125 22.6007 1.37352 5.92836 -5.8165 1.62135 -5.9425 -0.405817 0.773598 -2.26526 -3.49335 3.28948 -0 0 0 -0 0 0 1.06678e-013 1.07612e-013 -6.4248e-013 47.9389 45.6245 2.20355 -27.3719 -42.866 89.2994 -0.072092 -7.60537 -1.07535 1.79942e-010 -5.77278e-010 3.85114e-010 3.16873e-010 -9.87522e-010 6.60363e-010 1.79954e-010 -5.77261e-010 3.85099e-010 7.73091 5.47488 0.417314 1.79938e-010 -5.77275e-010 3.85114e-010 2.90554 0.965183 0.102902 1.79947e-010 -5.77274e-010 3.8512e-010 10.2786 0.731801 0.0259123 1.79941e-010 -5.77274e-010 3.8513e-010 2.22167 -0.733487 -0.20892 1.06571e-013 1.07622e-013 -6.42624e-013 -82.7937 23.8608 12.5399 27.9945 -40.431 -84.707 0.72652 -23.4559 3.49628 3.2959e-009 -2.4867e-009 2.78245e-009 5.65545e-009 -4.39157e-009 4.85929e-009 3.29589e-009 -2.48671e-009 2.78246e-009 -7.73091 5.47488 -0.417314 3.2959e-009 -2.4867e-009 2.78245e-009 -2.90554 0.965183 -0.102902 3.29589e-009 -2.4867e-009 2.78245e-009 -10.2786 0.731801 -0.0259123 3.2959e-009 -2.4867e-009 2.78245e-009 -2.22167 -0.733487 0.20892 -2.03217e-016 0 -3.88251e-019 -13.6747 -27.0797 -4.34077 -0.986644 59.3113 1.52742 -2.27261 -16.3742 -4.77442 2.03217e-016 0 3.88251e-019 14.714 -41.0099 14.6483 41.5656 88.3904 -41.7622 -2.93314 0.753846 -21.9926 
-50.6836 72.3876 -4.80957 -5.3727 -9.99066 35.7251 13.3706 22.7551 2.25599 5.63315 -5.95747 1.86933 -5.83716 -0.405676 0.626616 -2.05076 -3.20887 2.98936 -0 0 0 -0 0 0 -6.04145e-014 1.94005e-013 -2.76609e-013 46.8838 45.7153 4.06714 -27.3884 -42.8777 89.253 -0.0791226 -7.99897 -1.13162 2.28023e-010 1.28131e-009 -1.12897e-009 4.03971e-010 2.22638e-009 -1.95441e-009 2.28038e-010 1.28133e-009 -1.12899e-009 7.73091 5.47488 0.417314 2.2802e-010 1.28131e-009 -1.12897e-009 2.90554 0.965183 0.102902 2.28029e-010 1.28132e-009 -1.12896e-009 10.2786 0.731801 0.0259123 2.28022e-010 1.28132e-009 -1.12895e-009 2.22167 -0.733487 -0.20892 -6.05003e-014 1.94023e-013 -2.76758e-013 -83.2379 23.9583 13.3862 27.9883 -40.4756 -84.7781 0.697842 -23.028 3.42473 2.08207e-009 -2.92859e-009 2.83271e-009 3.55521e-009 -5.13018e-009 4.92681e-009 2.08207e-009 -2.92859e-009 2.83272e-009 -7.73091 5.47488 -0.417314 2.08207e-009 -2.92859e-009 2.83271e-009 -2.90554 0.965183 -0.102902 2.08207e-009 -2.92859e-009 2.83271e-009 -10.2786 0.731801 -0.0259123 2.08208e-009 -2.92859e-009 2.83271e-009 -2.22167 -0.733487 0.20892 -2.03217e-016 0 -3.88251e-019 -13.5446 -25.8564 -4.87354 -0.973479 59.2787 1.57118 -2.47738 -17.2585 -5.03996 2.03217e-016 0 3.88251e-019 15.1981 -42.0742 15.9782 49.9166 88.6007 -50.1297 -3.00602 -0.436308 -19.9952 
-50.1298 72.394 -3.7426 -5.63624 -10.1601 36.2938 13.6408 22.9371 3.15293 5.28585 -6.08063 2.12383 -5.71307 -0.366458 0.502645 -1.88006 -3.13564 2.71753 -0 0 0 -0 0 0 -2.17266e-013 1.89147e-013 1.89996e-013 46.0827 45.8532 5.72605 -27.3168 -43.1351 89.714 -0.0910411 -8.63757 -1.22308 3.57837e-010 2.47904e-009 -2.48194e-009 6.32104e-010 4.29535e-009 -4.28804e-009 3.5785e-010 2.47906e-009 -2.48196e-009 7.73091 5.47488 0.417314 3.57835e-010 2.47905e-009 -2.48194e-009 2.90554 0.965183 0.102902 3.57844e-010 2.47905e-009 -2.48193e-009 10.2786 0.731801 0.0259123 3.57835e-010 2.47905e-009 -2.48192e-009 2.22167 -0.733487 -0.20892 -2.17349e-013 1.89165e-013 1.89798e-013 -83.6016 24.1229 14.3484 27.9648 -40.6061 -85.0068 0.675044 -22.6775 3.36652 7.2088e-011 -2.39609e-009 2.04298e-009 9.16991e-011 -4.17072e-009 3.53068e-009 7.20836e-011 -2.39608e-009 2.04299e-009 -7.73091 5.47488 -0.417314 7.20903e-011 -2.39608e-009 2.04298e-009 -2.90554 0.965183 -0.102902 7.20852e-011 -2.39608e-009 2.04298e-009 -10.2786 0.731801 -0.0259123 7.20936e-011 -2.39608e-009 2.04297e-009 -2.22167 -0.733487 0.20892 -2.03217e-016 0 -3.88251e-019 -13.1781 -24.5542 -5.26692 -0.950477 59.0708 1.60467 -2.80914 -17.9949 -5.63278 2.03217e-016 0 3.88251e-019 15.6662 -43.164 17.0148 60.4984 88.7678 -60.7305 -2.99007 -1.4384 -18.2229 
